<svg class="svg-icon" style="width: 1em; height: 1em;vertical-align: middle;fill: currentColor;overflow: hidden;" viewBox="0 0 1024 1024" version="1.1" xmlns="http://www.w3.org/2000/svg"><path d="M780.288 291.84v-43.52c3.072 0 6.144-1.024 8.192-3.072h125.44c21.504 0 38.912 17.408 38.912 38.912v334.336c0 8.704 6.656 15.36 15.36 15.36s15.36-6.656 15.36-15.36V284.16c0-38.4-31.232-69.632-69.632-69.632h-134.144V147.456c0-54.272-44.032-97.792-98.304-97.792h-583.68C44.032 49.664 0 93.184 0 147.456v718.336c0 54.272 44.032 97.792 98.304 97.792h429.568c76.288-123.392 191.488-338.944 252.416-437.76V291.84z m-30.72 0v226.304c-28.16 46.592-66.56 114.176-106.496 185.856-46.08 81.408-93.184 165.376-132.096 229.888H98.304c-37.376 0-67.584-30.208-67.584-67.072V147.456c0-36.864 30.208-67.072 67.584-67.072h583.68c37.376 0 67.584 30.208 67.584 67.072V291.84z"  /><path d="M572.928 485.888H207.36c-6.144 0-11.776 2.048-15.872 5.632-4.096 3.584-6.656 8.192-6.656 13.312v3.072c0 5.12 2.56 9.728 6.656 13.312 4.096 3.584 9.728 5.632 15.872 5.632h365.056c6.144 0 11.776-2.048 15.872-5.632 4.096-3.584 6.656-8.192 6.656-13.312v-3.072c0-5.12-2.56-9.728-6.656-13.312-4.096-4.096-9.728-5.632-15.36-5.632zM572.928 621.568H207.36c-12.288 0-22.016 8.192-22.016 18.432v3.584c0 10.24 9.728 18.432 22.016 18.432H573.44c12.288 0 22.016-8.192 22.016-18.432v-3.584c-0.512-10.24-10.24-18.432-22.528-18.432zM854.016 633.856c-94.208 0-169.984 76.288-169.984 169.984 0 94.208 76.288 169.984 169.984 169.984 94.208 0 169.984-76.288 169.984-169.984 0-93.696-76.288-169.984-169.984-169.984z m0 309.76c-76.8 0-139.264-62.464-139.264-139.264s62.464-139.264 139.264-139.264S993.28 727.04 993.28 804.352c0 76.8-62.464 139.264-139.264 139.264z"  /><path d="M928.768 787.456h-56.32v-76.8c0-8.704-6.656-15.36-15.36-15.36s-15.36 6.656-15.36 15.36v92.16c0 8.704 6.656 15.36 15.36 15.36h71.68c8.704 0 15.36-6.656 15.36-15.36s-6.656-15.36-15.36-15.36zM543.744 244.736h-307.2c-28.16 0-51.2 23.04-51.2 51.2s23.04 51.2 51.2 51.2h307.2c28.16 0 51.2-23.04 51.2-51.2s-23.04-51.2-51.2-51.2z"  /></svg>